  0
SECTION
  2
HEADER
  9
$ACADVER
  1
AC1015
  9
$HANDSEED
  5
      CD
  0
ENDSEC
  0
SECTION
  2
TABLES
  0
TABLE
  2
VPORT
  5
1
100
AcDbSymbolTable
 70
     1
  0
VPORT
  5
2
100
AcDbSymbolTableRecord
100
AcDbViewportTableRecord
  2
*Active
 70
     0
 12
0
 22
0
 40
3300
 41
1
  0
ENDTAB
  0
TABLE
  2
LTYPE
  5
3
100
AcDbSymbolTable
 70
     2
  0
LTYPE
  5
4
100
AcDbSymbolTableRecord
100
AcDbLinetypeTableRecord
  2
ByBlock
 70
     0
  0
LTYPE
  5
5
100
AcDbSymbolTableRecord
100
AcDbLinetypeTableRecord
  2
ByLayer
 70
     0
  0
ENDTAB
  0
TABLE
  2
LAYER
  5
6
100
AcDbSymbolTable
 70
     1
  0
LAYER
  5
7
100
AcDbSymbolTableRecord
100
AcDbLayerTableRecord
  2
0
 70
     0
390

  0
ENDTAB
  0
TABLE
  2
STYLE
  5
8
100
AcDbSymbolTable
 70
     1
  0
STYLE
  5
9
100
AcDbSymbolTableRecord
100
AcDbTextStyleTableRecord
  2
Standard
 70
     0
  3
txt
  0
ENDTAB
  0
TABLE
  2
VIEW
  5
A
100
AcDbSymbolTable
 70
     0
  0
ENDTAB
  0
TABLE
  2
UCS
  5
B
100
AcDbSymbolTable
 70
     0
  0
ENDTAB
  0
TABLE
  2
APPID
  5
C
100
AcDbSymbolTable
 70
     1
  0
APPID
  5
D
100
AcDbSymbolTableRecord
100
AcDbRegAppTableRecord
  2
ACAD
 70
     0
  0
ENDTAB
  0
TABLE
  2
DIMSTYLE
  5
E
100
AcDbSymbolTable
 70
     0
100
AcDbDimStyleTable
  0
ENDTAB
  0
TABLE
  2
BLOCK_RECORD
  5
F
100
AcDbSymbolTable
 70
24
  0
BLOCK_RECORD
  5
10
100
AcDbSymbolTableRecord
100
AcDbBlockTableRecord
  2
*Model_Space
  0
BLOCK_RECORD
  5
11
100
AcDbSymbolTableRecord
100
AcDbBlockTableRecord
  2
*Paper_Space
  0
BLOCK_RECORD
  5
12
100
AcDbSymbolTableRecord
100
AcDbBlockTableRecord
  2
Diseño.Mueble
  0
BLOCK_RECORD
  5
13
100
AcDbSymbolTableRecord
100
AcDbBlockTableRecord
  2
Diseño.Mueble.Suelo
  0
BLOCK_RECORD
  5
14
100
AcDbSymbolTableRecord
100
AcDbBlockTableRecord
  2
Diseño.Mueble.Suelo1
  0
BLOCK_RECORD
  5
15
100
AcDbSymbolTableRecord
100
AcDbBlockTableRecord
  2
Diseño.Mueble.Lateral Derecho
  0
BLOCK_RECORD
  5
16
100
AcDbSymbolTableRecord
100
AcDbBlockTableRecord
  2
Diseño.Mueble.Lateral Derecho1
  0
BLOCK_RECORD
  5
17
100
AcDbSymbolTableRecord
100
AcDbBlockTableRecord
  2
Diseño.Mueble.Lateral Izquierdo
  0
BLOCK_RECORD
  5
18
100
AcDbSymbolTableRecord
100
AcDbBlockTableRecord
  2
Diseño.Mueble.Lateral Izquierdo1
  0
BLOCK_RECORD
  5
19
100
AcDbSymbolTableRecord
100
AcDbBlockTableRecord
  2
Diseño.Mueble.Puerta
  0
BLOCK_RECORD
  5
1A
100
AcDbSymbolTableRecord
100
AcDbBlockTableRecord
  2
Diseño.Mueble.Puerta (1) (1)
  0
BLOCK_RECORD
  5
1B
100
AcDbSymbolTableRecord
100
AcDbBlockTableRecord
  2
Diseño.Mueble.Puerta (1) (2)
  0
BLOCK_RECORD
  5
1C
100
AcDbSymbolTableRecord
100
AcDbBlockTableRecord
  2
Diseño.Mueble.Puerta (2)
  0
BLOCK_RECORD
  5
1D
100
AcDbSymbolTableRecord
100
AcDbBlockTableRecord
  2
Diseño.Mueble.Faja Iz
  0
BLOCK_RECORD
  5
1E
100
AcDbSymbolTableRecord
100
AcDbBlockTableRecord
  2
Diseño.Mueble.Faja Iz1
  0
BLOCK_RECORD
  5
1F
100
AcDbSymbolTableRecord
100
AcDbBlockTableRecord
  2
Diseño.Mueble.Faja superior
  0
BLOCK_RECORD
  5
20
100
AcDbSymbolTableRecord
100
AcDbBlockTableRecord
  2
Diseño.Mueble.Faja superior1
  0
BLOCK_RECORD
  5
21
100
AcDbSymbolTableRecord
100
AcDbBlockTableRecord
  2
Diseño.Mueble.Zócalo 1 [1]
  0
BLOCK_RECORD
  5
22
100
AcDbSymbolTableRecord
100
AcDbBlockTableRecord
  2
Diseño.Mueble.Zócalo 1 [1]1
  0
BLOCK_RECORD
  5
23
100
AcDbSymbolTableRecord
100
AcDbBlockTableRecord
  2
Diseño.Mueble.Zócalo 1 [2]
  0
BLOCK_RECORD
  5
24
100
AcDbSymbolTableRecord
100
AcDbBlockTableRecord
  2
Diseño.Mueble.Zócalo 1 [2]1
  0
BLOCK_RECORD
  5
25
100
AcDbSymbolTableRecord
100
AcDbBlockTableRecord
  2
Diseño.Suelo 1
  0
BLOCK_RECORD
  5
26
100
AcDbSymbolTableRecord
100
AcDbBlockTableRecord
  2
Diseño.Muro 1
  0
BLOCK_RECORD
  5
27
100
AcDbSymbolTableRecord
100
AcDbBlockTableRecord
  2
Diseño.Muro 2
  0
ENDTAB
  0
ENDSEC
  0
SECTION
  2
BLOCKS
  0
BLOCK
  5
28
100
AcDbEntity
100
AcDbBlockBegin
  2
*Model_Space
  0
ENDBLK
  5
29
100
AcDbEntity
100
AcDbBlockEnd
  0
BLOCK
  5
2A
100
AcDbEntity
100
AcDbBlockBegin
  2
*Paper_Space
  0
ENDBLK
  5
2B
100
AcDbEntity
100
AcDbBlockEnd
  0
BLOCK
  5
2C
100
AcDbEntity
  8
0
100
AcDbBlockBegin
  2
Diseño.Mueble
 70
     0
 10
0
 20
0
 30
0
  0
INSERT
  5
2D
100
AcDbEntity
  8
Diseño.Mueble.Suelo
100
AcDbBlockReference
  2
Diseño.Mueble.Suelo
 10
0
 20
0
 30
0
210
0
220
0
230
1
  0
INSERT
  5
2E
100
AcDbEntity
  8
Diseño.Mueble.Lateral Derecho
100
AcDbBlockReference
  2
Diseño.Mueble.Lateral Derecho
 10
0
 20
0
 30
0
210
0
220
0
230
1
  0
INSERT
  5
2F
100
AcDbEntity
  8
Diseño.Mueble.Lateral Izquierdo
100
AcDbBlockReference
  2
Diseño.Mueble.Lateral Izquierdo
 10
0
 20
0
 30
0
210
0
220
0
230
1
  0
INSERT
  5
30
100
AcDbEntity
  8
Diseño.Mueble.Puerta
100
AcDbBlockReference
  2
Diseño.Mueble.Puerta
 10
0
 20
0
 30
0
210
0
220
0
230
1
  0
INSERT
  5
31
100
AcDbEntity
  8
Diseño.Mueble.Faja Iz
100
AcDbBlockReference
  2
Diseño.Mueble.Faja Iz
 10
0
 20
0
 30
0
210
0
220
0
230
1
  0
INSERT
  5
32
100
AcDbEntity
  8
Diseño.Mueble.Faja superior
100
AcDbBlockReference
  2
Diseño.Mueble.Faja superior
 10
0
 20
0
 30
0
210
0
220
0
230
1
  0
INSERT
  5
33
100
AcDbEntity
  8
Diseño.Mueble.Zócalo 1 [1]
100
AcDbBlockReference
  2
Diseño.Mueble.Zócalo 1 [1]
 10
0
 20
0
 30
0
210
0
220
0
230
1
  0
INSERT
  5
34
100
AcDbEntity
  8
Diseño.Mueble.Zócalo 1 [2]
100
AcDbBlockReference
  2
Diseño.Mueble.Zócalo 1 [2]
 10
0
 20
0
 30
0
210
0
220
0
230
1
  0
ENDBLK
  5
35
100
AcDbEntity
  8
0
100
AcDbBlockEnd
  0
BLOCK
  5
36
100
AcDbEntity
  8
Diseño.Mueble.Suelo
100
AcDbBlockBegin
  2
Diseño.Mueble.Suelo
 70
     0
 10
0
 20
0
 30
0
  0
INSERT
  5
37
100
AcDbEntity
  8
MELA_BL
100
AcDbBlockReference
  2
Diseño.Mueble.Suelo1
 10
3
 20
3
 30
70
210
0
220
0
230
1
  0
ENDBLK
  5
38
100
AcDbEntity
  8
Diseño.Mueble.Suelo
100
AcDbBlockEnd
  0
BLOCK
  5
39
100
AcDbEntity
  8
MELA_BL
100
AcDbBlockBegin
  2
Diseño.Mueble.Suelo1
 70
     0
 10
3
 20
3
 30
70
  0
3DFACE
  5
3A
100
AcDbEntity
  8
MELA_BL
 62
0
100
AcDbFace
 10
3
 20
3
 30
70
 11
3
 21
420
 31
70
 12
450
 22
420
 32
70
 13
450
 23
3
 33
70
 70
0
  0
3DFACE
  5
3B
100
AcDbEntity
  8
MELA_BL
 62
0
100
AcDbFace
 10
3
 20
3
 30
89
 11
3
 21
420
 31
89
 12
450
 22
420
 32
89
 13
450
 23
3
 33
89
 70
0
  0
3DFACE
  5
3C
100
AcDbEntity
  8
MELA_BL
 62
0
100
AcDbFace
 10
3
 20
3
 30
89
 11
3
 21
420
 31
89
 12
3
 22
420
 32
70
 13
3
 23
3
 33
70
 70
0
  0
3DFACE
  5
3D
100
AcDbEntity
  8
MELA_BL
 62
0
100
AcDbFace
 10
3
 20
420
 30
89
 11
450
 21
420
 31
89
 12
450
 22
420
 32
70
 13
3
 23
420
 33
70
 70
0
  0
3DFACE
  5
3E
100
AcDbEntity
  8
MELA_BL
 62
0
100
AcDbFace
 10
450
 20
420
 30
89
 11
450
 21
3
 31
89
 12
450
 22
3
 32
70
 13
450
 23
420
 33
70
 70
0
  0
3DFACE
  5
3F
100
AcDbEntity
  8
MELA_BL
 62
0
100
AcDbFace
 10
450
 20
3
 30
89
 11
3
 21
3
 31
89
 12
3
 22
3
 32
70
 13
450
 23
3
 33
70
 70
0
  0
ENDBLK
  5
40
100
AcDbEntity
  8
MELA_BL
100
AcDbBlockEnd
  0
BLOCK
  5
41
100
AcDbEntity
  8
Diseño.Mueble.Lateral Derecho
100
AcDbBlockBegin
  2
Diseño.Mueble.Lateral Derecho
 70
     0
 10
0
 20
0
 30
0
  0
INSERT
  5
42
100
AcDbEntity
  8
MELA_BL
100
AcDbBlockReference
  2
Diseño.Mueble.Lateral Derecho1
 10
435
 20
19
 30
89
210
0
220
0
230
1
  0
ENDBLK
  5
43
100
AcDbEntity
  8
Diseño.Mueble.Lateral Derecho
100
AcDbBlockEnd
  0
BLOCK
  5
44
100
AcDbEntity
  8
MELA_BL
100
AcDbBlockBegin
  2
Diseño.Mueble.Lateral Derecho1
 70
     0
 10
435
 20
19
 30
89
  0
3DFACE
  5
45
100
AcDbEntity
  8
MELA_BL
 62
0
100
AcDbFace
 10
435
 20
19
 30
89
 11
435
 21
99
 31
89
 12
435
 22
99
 32
2850
 13
435
 23
19
 33
2850
 70
0
  0
3DFACE
  5
46
100
AcDbEntity
  8
MELA_BL
 62
0
100
AcDbFace
 10
416
 20
19
 30
89
 11
416
 21
99
 31
89
 12
416
 22
99
 32
2850
 13
416
 23
19
 33
2850
 70
0
  0
3DFACE
  5
47
100
AcDbEntity
  8
MELA_BL
 62
0
100
AcDbFace
 10
416
 20
19
 30
89
 11
416
 21
99
 31
89
 12
435
 22
99
 32
89
 13
435
 23
19
 33
89
 70
0
  0
3DFACE
  5
48
100
AcDbEntity
  8
MELA_BL
 62
0
100
AcDbFace
 10
416
 20
99
 30
89
 11
416
 21
99
 31
2850
 12
435
 22
99
 32
2850
 13
435
 23
99
 33
89
 70
0
  0
3DFACE
  5
49
100
AcDbEntity
  8
MELA_BL
 62
0
100
AcDbFace
 10
416
 20
99
 30
2850
 11
416
 21
19
 31
2850
 12
435
 22
19
 32
2850
 13
435
 23
99
 33
2850
 70
0
  0
3DFACE
  5
4A
100
AcDbEntity
  8
MELA_BL
 62
0
100
AcDbFace
 10
416
 20
19
 30
2850
 11
416
 21
19
 31
89
 12
435
 22
19
 32
89
 13
435
 23
19
 33
2850
 70
0
  0
ENDBLK
  5
4B
100
AcDbEntity
  8
MELA_BL
100
AcDbBlockEnd
  0
BLOCK
  5
4C
100
AcDbEntity
  8
Diseño.Mueble.Lateral Izquierdo
100
AcDbBlockBegin
  2
Diseño.Mueble.Lateral Izquierdo
 70
     0
 10
0
 20
0
 30
0
  0
INSERT
  5
4D
100
AcDbEntity
  8
MELA_BL
100
AcDbBlockReference
  2
Diseño.Mueble.Lateral Izquierdo1
 10
0
 20
0
 30
2850
210
0
220
0
230
1
  0
ENDBLK
  5
4E
100
AcDbEntity
  8
Diseño.Mueble.Lateral Izquierdo
100
AcDbBlockEnd
  0
BLOCK
  5
4F
100
AcDbEntity
  8
MELA_BL
100
AcDbBlockBegin
  2
Diseño.Mueble.Lateral Izquierdo1
 70
     0
 10
0
 20
0
 30
2850
  0
3DFACE
  5
50
100
AcDbEntity
  8
MELA_BL
 62
0
100
AcDbFace
 10
0
 20
0
 30
2850
 11
0
 21
420
 31
2850
 12
0
 22
420
 32
89
 13
0
 23
0
 33
89
 70
0
  0
3DFACE
  5
51
100
AcDbEntity
  8
MELA_BL
 62
0
100
AcDbFace
 10
19
 20
0
 30
2850
 11
19
 21
420
 31
2850
 12
19
 22
420
 32
89
 13
19
 23
0
 33
89
 70
0
  0
3DFACE
  5
52
100
AcDbEntity
  8
MELA_BL
 62
0
100
AcDbFace
 10
19
 20
0
 30
2850
 11
19
 21
420
 31
2850
 12
0
 22
420
 32
2850
 13
0
 23
0
 33
2850
 70
0
  0
3DFACE
  5
53
100
AcDbEntity
  8
MELA_BL
 62
0
100
AcDbFace
 10
19
 20
420
 30
2850
 11
19
 21
420
 31
89
 12
0
 22
420
 32
89
 13
0
 23
420
 33
2850
 70
0
  0
3DFACE
  5
54
100
AcDbEntity
  8
MELA_BL
 62
0
100
AcDbFace
 10
19
 20
420
 30
89
 11
19
 21
0
 31
89
 12
0
 22
0
 32
89
 13
0
 23
420
 33
89
 70
0
  0
3DFACE
  5
55
100
AcDbEntity
  8
MELA_BL
 62
0
100
AcDbFace
 10
19
 20
0
 30
89
 11
19
 21
0
 31
2850
 12
0
 22
0
 32
2850
 13
0
 23
0
 33
89
 70
0
  0
ENDBLK
  5
56
100
AcDbEntity
  8
MELA_BL
100
AcDbBlockEnd
  0
BLOCK
  5
57
100
AcDbEntity
  8
Diseño.Mueble.Puerta
100
AcDbBlockBegin
  2
Diseño.Mueble.Puerta
 70
     0
 10
0
 20
0
 30
0
  0
INSERT
  5
58
100
AcDbEntity
  8
MELA_BL
100
AcDbBlockReference
  2
Diseño.Mueble.Puerta (1) (1)
 10
21
 20
0
 30
2850
210
0
220
0
230
1
  0
INSERT
  5
59
100
AcDbEntity
  8
MELA_BL
100
AcDbBlockReference
  2
Diseño.Mueble.Puerta (1) (2)
 10
413
 20
0
 30
2807
210
0
220
0
230
1
  0
INSERT
  5
5A
100
AcDbEntity
  8
MELA_BL
100
AcDbBlockReference
  2
Diseño.Mueble.Puerta (2)
 10
416
 20
0
 30
2850
210
0
220
0
230
1
  0
ENDBLK
  5
5B
100
AcDbEntity
  8
Diseño.Mueble.Puerta
100
AcDbBlockEnd
  0
BLOCK
  5
5C
100
AcDbEntity
  8
MELA_BL
100
AcDbBlockBegin
  2
Diseño.Mueble.Puerta (1) (1)
 70
     0
 10
21
 20
0
 30
2850
  0
3DFACE
  5
5D
100
AcDbEntity
  8
MELA_BL
 62
0
100
AcDbFace
 10
21
 20
0
 30
2850
 11
413
 21
0
 31
2850
 12
413
 22
0
 32
2810
 13
21
 23
0
 33
2810
 70
0
  0
3DFACE
  5
5E
100
AcDbEntity
  8
MELA_BL
 62
0
100
AcDbFace
 10
21
 20
19
 30
2850
 11
21
 21
19
 31
2810
 12
413
 22
19
 32
2810
 13
413
 23
19
 33
2850
 70
0
  0
3DFACE
  5
5F
100
AcDbEntity
  8
MELA_BL
 62
0
100
AcDbFace
 10
413
 20
0
 30
2850
 11
21
 21
0
 31
2850
 12
21
 22
19
 32
2850
 13
413
 23
19
 33
2850
 70
0
  0
3DFACE
  5
60
100
AcDbEntity
  8
MELA_BL
 62
0
100
AcDbFace
 10
413
 20
0
 30
2810
 11
413
 21
0
 31
2850
 12
413
 22
19
 32
2850
 13
413
 23
19
 33
2810
 70
0
  0
3DFACE
  5
61
100
AcDbEntity
  8
MELA_BL
 62
0
100
AcDbFace
 10
21
 20
0
 30
2810
 11
21
 21
19
 31
2810
 12
413
 22
19
 32
2810
 13
413
 23
0
 33
2810
 70
0
  0
3DFACE
  5
62
100
AcDbEntity
  8
MELA_BL
 62
0
100
AcDbFace
 10
21
 20
19
 30
2850
 11
21
 21
0
 31
2850
 12
21
 22
0
 32
2810
 13
21
 23
19
 33
2810
 70
0
  0
ENDBLK
  5
63
100
AcDbEntity
  8
MELA_BL
100
AcDbBlockEnd
  0
BLOCK
  5
64
100
AcDbEntity
  8
MELA_BL
100
AcDbBlockBegin
  2
Diseño.Mueble.Puerta (1) (2)
 70
     0
 10
413
 20
0
 30
2807
  0
3DFACE
  5
65
100
AcDbEntity
  8
MELA_BL
 62
0
100
AcDbFace
 10
413
 20
0
 30
2807
 11
413
 21
0
 31
94
 12
21
 22
0
 32
94
 13
21
 23
0
 33
2807
 70
0
  0
3DFACE
  5
66
100
AcDbEntity
  8
MELA_BL
 62
0
100
AcDbFace
 10
21
 20
19
 30
2807
 11
21
 21
19
 31
94
 12
413
 22
19
 32
94
 13
413
 23
19
 33
2807
 70
0
  0
3DFACE
  5
67
100
AcDbEntity
  8
MELA_BL
 62
0
100
AcDbFace
 10
413
 20
0
 30
94
 11
413
 21
0
 31
2807
 12
413
 22
19
 32
2807
 13
413
 23
19
 33
94
 70
0
  0
3DFACE
  5
68
100
AcDbEntity
  8
MELA_BL
 62
0
100
AcDbFace
 10
21
 20
19
 30
94
 11
21
 21
0
 31
94
 12
413
 22
0
 32
94
 13
413
 23
19
 33
94
 70
0
  0
3DFACE
  5
69
100
AcDbEntity
  8
MELA_BL
 62
0
100
AcDbFace
 10
21
 20
0
 30
2807
 11
21
 21
0
 31
94
 12
21
 22
19
 32
94
 13
21
 23
19
 33
2807
 70
0
  0
3DFACE
  5
6A
100
AcDbEntity
  8
MELA_BL
 62
0
100
AcDbFace
 10
413
 20
0
 30
2807
 11
413
 21
19
 31
2807
 12
21
 22
19
 32
2807
 13
21
 23
0
 33
2807
 70
0
  0
ENDBLK
  5
6B
100
AcDbEntity
  8
MELA_BL
100
AcDbBlockEnd
  0
BLOCK
  5
6C
100
AcDbEntity
  8
MELA_BL
100
AcDbBlockBegin
  2
Diseño.Mueble.Puerta (2)
 70
     0
 10
416
 20
0
 30
2850
  0
3DFACE
  5
6D
100
AcDbEntity
  8
MELA_BL
 62
0
100
AcDbFace
 10
416
 20
0
 30
2850
 11
450
 21
0
 31
2850
 12
450
 22
0
 32
94
 13
416
 23
0
 33
94
 70
0
  0
3DFACE
  5
6E
100
AcDbEntity
  8
MELA_BL
 62
0
100
AcDbFace
 10
416
 20
19
 30
94
 11
450
 21
19
 31
94
 12
450
 22
19
 32
2850
 13
416
 23
19
 33
2850
 70
0
  0
3DFACE
  5
6F
100
AcDbEntity
  8
MELA_BL
 62
0
100
AcDbFace
 10
450
 20
19
 30
2850
 11
450
 21
0
 31
2850
 12
416
 22
0
 32
2850
 13
416
 23
19
 33
2850
 70
0
  0
3DFACE
  5
70
100
AcDbEntity
  8
MELA_BL
 62
0
100
AcDbFace
 10
450
 20
19
 30
94
 11
450
 21
0
 31
94
 12
450
 22
0
 32
2850
 13
450
 23
19
 33
2850
 70
0
  0
3DFACE
  5
71
100
AcDbEntity
  8
MELA_BL
 62
0
100
AcDbFace
 10
416
 20
0
 30
94
 11
450
 21
0
 31
94
 12
450
 22
19
 32
94
 13
416
 23
19
 33
94
 70
0
  0
3DFACE
  5
72
100
AcDbEntity
  8
MELA_BL
 62
0
100
AcDbFace
 10
416
 20
0
 30
2850
 11
416
 21
19
 31
2850
 12
416
 22
19
 32
94
 13
416
 23
0
 33
94
 70
0
  0
ENDBLK
  5
73
100
AcDbEntity
  8
MELA_BL
100
AcDbBlockEnd
  0
BLOCK
  5
74
100
AcDbEntity
  8
Diseño.Mueble.Faja Iz
100
AcDbBlockBegin
  2
Diseño.Mueble.Faja Iz
 70
     0
 10
0
 20
0
 30
0
  0
INSERT
  5
75
100
AcDbEntity
  8
MELA_BL
100
AcDbBlockReference
  2
Diseño.Mueble.Faja Iz1
 10
19
 20
99
 30
89
210
0
220
0
230
1
  0
ENDBLK
  5
76
100
AcDbEntity
  8
Diseño.Mueble.Faja Iz
100
AcDbBlockEnd
  0
BLOCK
  5
77
100
AcDbEntity
  8
MELA_BL
100
AcDbBlockBegin
  2
Diseño.Mueble.Faja Iz1
 70
     0
 10
19
 20
99
 30
89
  0
3DFACE
  5
78
100
AcDbEntity
  8
MELA_BL
 62
0
100
AcDbFace
 10
19
 20
99
 30
89
 11
19
 21
99
 31
2850
 12
19
 22
19
 32
2850
 13
19
 23
19
 33
89
 70
0
  0
3DFACE
  5
79
100
AcDbEntity
  8
MELA_BL
 62
0
100
AcDbFace
 10
38
 20
99
 30
89
 11
38
 21
99
 31
2850
 12
38
 22
19
 32
2850
 13
38
 23
19
 33
89
 70
0
  0
3DFACE
  5
7A
100
AcDbEntity
  8
MELA_BL
 62
0
100
AcDbFace
 10
19
 20
99
 30
89
 11
38
 21
99
 31
89
 12
38
 22
99
 32
2850
 13
19
 23
99
 33
2850
 70
0
  0
3DFACE
  5
7B
100
AcDbEntity
  8
MELA_BL
 62
0
100
AcDbFace
 10
19
 20
99
 30
2850
 11
38
 21
99
 31
2850
 12
38
 22
19
 32
2850
 13
19
 23
19
 33
2850
 70
0
  0
3DFACE
  5
7C
100
AcDbEntity
  8
MELA_BL
 62
0
100
AcDbFace
 10
19
 20
19
 30
2850
 11
38
 21
19
 31
2850
 12
38
 22
19
 32
89
 13
19
 23
19
 33
89
 70
0
  0
3DFACE
  5
7D
100
AcDbEntity
  8
MELA_BL
 62
0
100
AcDbFace
 10
19
 20
19
 30
89
 11
38
 21
19
 31
89
 12
38
 22
99
 32
89
 13
19
 23
99
 33
89
 70
0
  0
ENDBLK
  5
7E
100
AcDbEntity
  8
MELA_BL
100
AcDbBlockEnd
  0
BLOCK
  5
7F
100
AcDbEntity
  8
Diseño.Mueble.Faja superior
100
AcDbBlockBegin
  2
Diseño.Mueble.Faja superior
 70
     0
 10
0
 20
0
 30
0
  0
INSERT
  5
80
100
AcDbEntity
  8
PLW_305
100
AcDbBlockReference
  2
Diseño.Mueble.Faja superior1
 10
416
 20
99
 30
2801
210
0
220
0
230
1
  0
ENDBLK
  5
81
100
AcDbEntity
  8
Diseño.Mueble.Faja superior
100
AcDbBlockEnd
  0
BLOCK
  5
82
100
AcDbEntity
  8
PLW_305
100
AcDbBlockBegin
  2
Diseño.Mueble.Faja superior1
 70
     0
 10
416
 20
99
 30
2801
  0
3DFACE
  5
83
100
AcDbEntity
  8
PLW_305
 62
0
100
AcDbFace
 10
416
 20
99
 30
2801
 11
38
 21
99
 31
2801
 12
38
 22
19
 32
2801
 13
416
 23
19
 33
2801
 70
0
  0
3DFACE
  5
84
100
AcDbEntity
  8
PLW_305
 62
0
100
AcDbFace
 10
416
 20
99
 30
2820
 11
38
 21
99
 31
2820
 12
38
 22
19
 32
2820
 13
416
 23
19
 33
2820
 70
0
  0
3DFACE
  5
85
100
AcDbEntity
  8
PLW_305
 62
0
100
AcDbFace
 10
416
 20
99
 30
2801
 11
416
 21
99
 31
2820
 12
38
 22
99
 32
2820
 13
38
 23
99
 33
2801
 70
0
  0
3DFACE
  5
86
100
AcDbEntity
  8
PLW_305
 62
0
100
AcDbFace
 10
38
 20
99
 30
2801
 11
38
 21
99
 31
2820
 12
38
 22
19
 32
2820
 13
38
 23
19
 33
2801
 70
0
  0
3DFACE
  5
87
100
AcDbEntity
  8
PLW_305
 62
0
100
AcDbFace
 10
38
 20
19
 30
2801
 11
38
 21
19
 31
2820
 12
416
 22
19
 32
2820
 13
416
 23
19
 33
2801
 70
0
  0
3DFACE
  5
88
100
AcDbEntity
  8
PLW_305
 62
0
100
AcDbFace
 10
416
 20
19
 30
2801
 11
416
 21
19
 31
2820
 12
416
 22
99
 32
2820
 13
416
 23
99
 33
2801
 70
0
  0
ENDBLK
  5
89
100
AcDbEntity
  8
PLW_305
100
AcDbBlockEnd
  0
BLOCK
  5
8A
100
AcDbEntity
  8
Diseño.Mueble.Zócalo 1 [1]
100
AcDbBlockBegin
  2
Diseño.Mueble.Zócalo 1 [1]
 70
     0
 10
0
 20
0
 30
0
  0
INSERT
  5
8B
100
AcDbEntity
  8
MELA_BL
100
AcDbBlockReference
  2
Diseño.Mueble.Zócalo 1 [1]1
 10
3
 20
3
 30
0
210
0
220
0
230
1
  0
ENDBLK
  5
8C
100
AcDbEntity
  8
Diseño.Mueble.Zócalo 1 [1]
100
AcDbBlockEnd
  0
BLOCK
  5
8D
100
AcDbEntity
  8
MELA_BL
100
AcDbBlockBegin
  2
Diseño.Mueble.Zócalo 1 [1]1
 70
     0
 10
3
 20
3
 30
0
  0
3DFACE
  5
8E
100
AcDbEntity
  8
MELA_BL
 62
0
100
AcDbFace
 10
3
 20
3
 30
0
 11
3
 21
420
 31
0
 12
3
 22
420
 32
70
 13
3
 23
3
 33
70
 70
0
  0
3DFACE
  5
8F
100
AcDbEntity
  8
MELA_BL
 62
0
100
AcDbFace
 10
22
 20
22
 30
0
 11
22
 21
420
 31
0
 12
22
 22
420
 32
70
 13
22
 23
22
 33
70
 70
0
  0
3DFACE
  5
90
100
AcDbEntity
  8
MELA_BL
 62
0
100
AcDbFace
 10
3
 20
3
 30
0
 11
22
 21
22
 31
0
 12
22
 22
420
 32
0
 13
3
 23
420
 33
0
 70
0
  0
3DFACE
  5
91
100
AcDbEntity
  8
MELA_BL
 62
0
100
AcDbFace
 10
3
 20
420
 30
0
 11
22
 21
420
 31
0
 12
22
 22
420
 32
70
 13
3
 23
420
 33
70
 70
0
  0
3DFACE
  5
92
100
AcDbEntity
  8
MELA_BL
 62
0
100
AcDbFace
 10
3
 20
420
 30
70
 11
22
 21
420
 31
70
 12
22
 22
22
 32
70
 13
3
 23
3
 33
70
 70
0
  0
3DFACE
  5
93
100
AcDbEntity
  8
MELA_BL
 62
0
100
AcDbFace
 10
3
 20
3
 30
70
 11
22
 21
22
 31
70
 12
22
 22
22
 32
0
 13
3
 23
3
 33
0
 70
0
  0
ENDBLK
  5
94
100
AcDbEntity
  8
MELA_BL
100
AcDbBlockEnd
  0
BLOCK
  5
95
100
AcDbEntity
  8
Diseño.Mueble.Zócalo 1 [2]
100
AcDbBlockBegin
  2
Diseño.Mueble.Zócalo 1 [2]
 70
     0
 10
0
 20
0
 30
0
  0
INSERT
  5
96
100
AcDbEntity
  8
MELA_BL
100
AcDbBlockReference
  2
Diseño.Mueble.Zócalo 1 [2]1
 10
450
 20
3
 30
0
210
0
220
0
230
1
  0
ENDBLK
  5
97
100
AcDbEntity
  8
Diseño.Mueble.Zócalo 1 [2]
100
AcDbBlockEnd
  0
BLOCK
  5
98
100
AcDbEntity
  8
MELA_BL
100
AcDbBlockBegin
  2
Diseño.Mueble.Zócalo 1 [2]1
 70
     0
 10
450
 20
3
 30
0
  0
3DFACE
  5
99
100
AcDbEntity
  8
MELA_BL
 62
0
100
AcDbFace
 10
450
 20
3
 30
0
 11
3
 21
3
 31
0
 12
3
 22
3
 32
70
 13
450
 23
3
 33
70
 70
0
  0
3DFACE
  5
9A
100
AcDbEntity
  8
MELA_BL
 62
0
100
AcDbFace
 10
450
 20
22
 30
0
 11
22
 21
22
 31
0
 12
22
 22
22
 32
70
 13
450
 23
22
 33
70
 70
0
  0
3DFACE
  5
9B
100
AcDbEntity
  8
MELA_BL
 62
0
100
AcDbFace
 10
450
 20
3
 30
0
 11
450
 21
22
 31
0
 12
22
 22
22
 32
0
 13
3
 23
3
 33
0
 70
0
  0
3DFACE
  5
9C
100
AcDbEntity
  8
MELA_BL
 62
0
100
AcDbFace
 10
3
 20
3
 30
0
 11
22
 21
22
 31
0
 12
22
 22
22
 32
70
 13
3
 23
3
 33
70
 70
0
  0
3DFACE
  5
9D
100
AcDbEntity
  8
MELA_BL
 62
0
100
AcDbFace
 10
3
 20
3
 30
70
 11
22
 21
22
 31
70
 12
450
 22
22
 32
70
 13
450
 23
3
 33
70
 70
0
  0
3DFACE
  5
9E
100
AcDbEntity
  8
MELA_BL
 62
0
100
AcDbFace
 10
450
 20
3
 30
70
 11
450
 21
22
 31
70
 12
450
 22
22
 32
0
 13
450
 23
3
 33
0
 70
0
  0
ENDBLK
  5
9F
100
AcDbEntity
  8
MELA_BL
100
AcDbBlockEnd
  0
BLOCK
  5
A0
100
AcDbEntity
  8
0
100
AcDbBlockBegin
  2
Diseño.Suelo 1
 70
     0
 10
-1500
 20
-1500
 30
0
  0
3DFACE
  5
A1
100
AcDbEntity
  8
0
 62
0
100
AcDbFace
 10
-1500
 20
-1500
 30
0
 11
1500
 21
-1500
 31
0
 12
1500
 22
1500
 32
0
 13
-1500
 23
1500
 33
0
 70
0
  0
3DFACE
  5
A2
100
AcDbEntity
  8
0
 62
0
100
AcDbFace
 10
-1500
 20
-1500
 30
-100
 11
1500
 21
-1500
 31
-100
 12
1500
 22
1500
 32
-100
 13
-1500
 23
1500
 33
-100
 70
0
  0
3DFACE
  5
A3
100
AcDbEntity
  8
0
 62
0
100
AcDbFace
 10
-1500
 20
-1500
 30
-100
 11
-1500
 21
-1500
 31
0
 12
1500
 22
-1500
 32
0
 13
1500
 23
-1500
 33
-100
 70
0
  0
3DFACE
  5
A4
100
AcDbEntity
  8
0
 62
0
100
AcDbFace
 10
1500
 20
-1500
 30
-100
 11
1500
 21
-1500
 31
0
 12
1500
 22
1500
 32
0
 13
1500
 23
1500
 33
-100
 70
0
  0
3DFACE
  5
A5
100
AcDbEntity
  8
0
 62
0
100
AcDbFace
 10
1500
 20
1500
 30
-100
 11
1500
 21
1500
 31
0
 12
-1500
 22
1500
 32
0
 13
-1500
 23
1500
 33
-100
 70
0
  0
3DFACE
  5
A6
100
AcDbEntity
  8
0
 62
0
100
AcDbFace
 10
-1500
 20
1500
 30
-100
 11
-1500
 21
1500
 31
0
 12
-1500
 22
-1500
 32
0
 13
-1500
 23
-1500
 33
-100
 70
0
  0
ENDBLK
  5
A7
100
AcDbEntity
  8
0
100
AcDbBlockEnd
  0
BLOCK
  5
A8
100
AcDbEntity
  8
0
100
AcDbBlockBegin
  2
Diseño.Muro 1
 70
     0
 10
-150.031235359
 20
1002.49921912
 30
2850
  0
3DFACE
  5
A9
100
AcDbEntity
  8
0
 62
0
100
AcDbFace
 10
-150.031235359
 20
1002.49921912
 30
2850
 11
-250
 21
1000
 31
2850
 12
-245
 22
800
 32
2850
 13
-150.031235359
 23
1002.49921912
 33
2850
 70
12
  0
3DFACE
  5
AA
100
AcDbEntity
  8
0
 62
0
100
AcDbFace
 10
-147.468754881
 20
900
 30
2850
 11
-150.031235359
 21
1002.49921912
 31
2850
 12
-245
 22
800
 32
2850
 13
-147.468754881
 23
900
 33
2850
 70
14
  0
3DFACE
  5
AB
100
AcDbEntity
  8
0
 62
0
100
AcDbFace
 10
205
 20
800
 30
2850
 11
-147.468754881
 21
900
 31
2850
 12
-245
 22
800
 32
2850
 13
205
 23
800
 33
2850
 70
11
  0
3DFACE
  5
AC
100
AcDbEntity
  8
0
 62
0
100
AcDbFace
 10
305
 20
900
 30
2850
 11
205
 21
800
 31
2850
 12
305
 22
-1200
 32
2850
 13
305
 23
900
 33
2850
 70
11
  0
3DFACE
  5
AD
100
AcDbEntity
  8
0
 62
0
100
AcDbFace
 10
305
 20
900
 30
2850
 11
-147.468754881
 21
900
 31
2850
 12
205
 22
800
 32
2850
 13
305
 23
900
 33
2850
 70
14
  0
3DFACE
  5
AE
100
AcDbEntity
  8
0
 62
0
100
AcDbFace
 10
305
 20
-1200
 30
2850
 11
205
 21
800
 31
2850
 12
205
 22
-1200
 32
2850
 13
305
 23
-1200
 33
2850
 70
9
  0
3DFACE
  5
AF
100
AcDbEntity
  8
0
 62
0
100
AcDbFace
 10
205
 20
-1200
 30
0
 11
305
 21
900
 31
0
 12
305
 22
-1200
 32
0
 13
205
 23
-1200
 33
0
 70
9
  0
3DFACE
  5
B0
100
AcDbEntity
  8
0
 62
0
100
AcDbFace
 10
205
 20
800
 30
0
 11
305
 21
900
 31
0
 12
205
 22
-1200
 32
0
 13
205
 23
800
 33
0
 70
11
  0
3DFACE
  5
B1
100
AcDbEntity
  8
0
 62
0
100
AcDbFace
 10
-147.468754881
 20
900
 30
0
 11
305
 21
900
 31
0
 12
205
 22
800
 32
0
 13
-147.468754881
 23
900
 33
0
 70
14
  0
3DFACE
  5
B2
100
AcDbEntity
  8
0
 62
0
100
AcDbFace
 10
-245
 20
800
 30
0
 11
-150.031235359
 21
1002.49921912
 31
0
 12
-147.468754881
 22
900
 32
0
 13
-245
 23
800
 33
0
 70
13
  0
3DFACE
  5
B3
100
AcDbEntity
  8
0
 62
0
100
AcDbFace
 10
-245
 20
800
 30
0
 11
-147.468754881
 21
900
 31
0
 12
205
 22
800
 32
0
 13
-245
 23
800
 33
0
 70
11
  0
3DFACE
  5
B4
100
AcDbEntity
  8
0
 62
0
100
AcDbFace
 10
-250
 20
1000
 30
0
 11
-150.031235359
 21
1002.49921912
 31
0
 12
-245
 22
800
 32
0
 13
-250
 23
1000
 33
0
 70
10
  0
3DFACE
  5
B5
100
AcDbEntity
  8
0
 62
0
100
AcDbFace
 10
-250
 20
1000
 30
0
 11
-250
 21
1000
 31
2850
 12
-245
 22
800
 32
2850
 13
-245
 23
800
 33
0
 70
0
  0
3DFACE
  5
B6
100
AcDbEntity
  8
0
 62
0
100
AcDbFace
 10
-245
 20
800
 30
0
 11
-245
 21
800
 31
2850
 12
205
 22
800
 32
2850
 13
205
 23
800
 33
0
 70
0
  0
3DFACE
  5
B7
100
AcDbEntity
  8
0
 62
0
100
AcDbFace
 10
205
 20
800
 30
0
 11
205
 21
800
 31
2850
 12
205
 22
-1200
 32
2850
 13
205
 23
-1200
 33
0
 70
0
  0
3DFACE
  5
B8
100
AcDbEntity
  8
0
 62
0
100
AcDbFace
 10
205
 20
-1200
 30
0
 11
205
 21
-1200
 31
2850
 12
305
 22
-1200
 32
2850
 13
305
 23
-1200
 33
0
 70
0
  0
3DFACE
  5
B9
100
AcDbEntity
  8
0
 62
0
100
AcDbFace
 10
305
 20
-1200
 30
0
 11
305
 21
-1200
 31
2850
 12
305
 22
900
 32
2850
 13
305
 23
900
 33
0
 70
0
  0
3DFACE
  5
BA
100
AcDbEntity
  8
0
 62
0
100
AcDbFace
 10
305
 20
900
 30
0
 11
305
 21
900
 31
2850
 12
-147.468754881
 22
900
 32
2850
 13
-147.468754881
 23
900
 33
0
 70
0
  0
3DFACE
  5
BB
100
AcDbEntity
  8
0
 62
0
100
AcDbFace
 10
-147.468754881
 20
900
 30
0
 11
-147.468754881
 21
900
 31
2850
 12
-150.031235359
 22
1002.49921912
 32
2850
 13
-150.031235359
 23
1002.49921912
 33
0
 70
0
  0
3DFACE
  5
BC
100
AcDbEntity
  8
0
 62
0
100
AcDbFace
 10
-150.031235359
 20
1002.49921912
 30
0
 11
-150.031235359
 21
1002.49921912
 31
2850
 12
-250
 22
1000
 32
2850
 13
-250
 23
1000
 33
0
 70
0
  0
ENDBLK
  5
BD
100
AcDbEntity
  8
0
100
AcDbBlockEnd
  0
BLOCK
  5
BE
100
AcDbEntity
  8
0
100
AcDbBlockBegin
  2
Diseño.Muro 2
 70
     0
 10
-250
 20
1100
 30
2850
  0
3DFACE
  5
BF
100
AcDbEntity
  8
0
 62
0
100
AcDbFace
 10
-250
 20
1100
 30
2850
 11
-1500
 21
1100
 31
2850
 12
-1500
 22
1000
 32
2850
 13
-250
 23
1000
 33
2850
 70
0
  0
3DFACE
  5
C0
100
AcDbEntity
  8
0
 62
0
100
AcDbFace
 10
-250
 20
1100
 30
0
 11
-1500
 21
1100
 31
0
 12
-1500
 22
1000
 32
0
 13
-250
 23
1000
 33
0
 70
0
  0
3DFACE
  5
C1
100
AcDbEntity
  8
0
 62
0
100
AcDbFace
 10
-250
 20
1100
 30
0
 11
-250
 21
1100
 31
2850
 12
-1500
 22
1100
 32
2850
 13
-1500
 23
1100
 33
0
 70
0
  0
3DFACE
  5
C2
100
AcDbEntity
  8
0
 62
0
100
AcDbFace
 10
-1500
 20
1100
 30
0
 11
-1500
 21
1100
 31
2850
 12
-1500
 22
1000
 32
2850
 13
-1500
 23
1000
 33
0
 70
0
  0
3DFACE
  5
C3
100
AcDbEntity
  8
0
 62
0
100
AcDbFace
 10
-1500
 20
1000
 30
0
 11
-1500
 21
1000
 31
2850
 12
-250
 22
1000
 32
2850
 13
-250
 23
1000
 33
0
 70
0
  0
3DFACE
  5
C4
100
AcDbEntity
  8
0
 62
0
100
AcDbFace
 10
-250
 20
1000
 30
0
 11
-250
 21
1000
 31
2850
 12
-250
 22
1100
 32
2850
 13
-250
 23
1100
 33
0
 70
0
  0
ENDBLK
  5
C5
100
AcDbEntity
  8
0
100
AcDbBlockEnd
  0
ENDSEC
  0
SECTION
  2
ENTITIES
  0
INSERT
  5
C6
100
AcDbEntity
  8
0
100
AcDbBlockReference
  2
Diseño.Mueble
 10
-245
 20
380
 30
0
210
0
220
0
230
1
  0
INSERT
  5
C7
100
AcDbEntity
  8
0
100
AcDbBlockReference
  2
Diseño.Suelo 1
 10
-1500
 20
-1500
 30
0
210
0
220
0
230
1
  0
INSERT
  5
C8
100
AcDbEntity
  8
0
100
AcDbBlockReference
  2
Diseño.Muro 1
 10
-150.031235359
 20
1002.49921912
 30
2850
210
0
220
0
230
1
  0
INSERT
  5
C9
100
AcDbEntity
  8
0
100
AcDbBlockReference
  2
Diseño.Muro 2
 10
-250
 20
1100
 30
2850
210
0
220
0
230
1
  0
ENDSEC
  0
SECTION
  2
OBJECTS
  0
DICTIONARY
  5
CA
100
AcDbDictionary
  3
ACAD_GROUP
350
CB
  3
ACAD_MLINESTYLE
350
CC
  0
DICTIONARY
  5
CB
100
AcDbDictionary
  0
DICTIONARY
  5
CC
100
AcDbDictionary
  0
ENDSEC
  0
EOF
