  0
SECTION
  2
HEADER
  9
$ACADVER
  1
AC1015
  9
$HANDSEED
  5
      D3
  0
ENDSEC
  0
SECTION
  2
TABLES
  0
TABLE
  2
VPORT
  5
1
100
AcDbSymbolTable
 70
     1
  0
VPORT
  5
2
100
AcDbSymbolTableRecord
100
AcDbViewportTableRecord
  2
*Active
 70
     0
 12
706
 22
362.5
 40
797.5
 41
1.9475862069
  0
ENDTAB
  0
TABLE
  2
LTYPE
  5
3
100
AcDbSymbolTable
 70
     2
  0
LTYPE
  5
4
100
AcDbSymbolTableRecord
100
AcDbLinetypeTableRecord
  2
ByBlock
 70
     0
  0
LTYPE
  5
5
100
AcDbSymbolTableRecord
100
AcDbLinetypeTableRecord
  2
ByLayer
 70
     0
  0
ENDTAB
  0
TABLE
  2
LAYER
  5
6
100
AcDbSymbolTable
 70
     1
  0
LAYER
  5
7
100
AcDbSymbolTableRecord
100
AcDbLayerTableRecord
  2
0
 70
     0
390

  0
ENDTAB
  0
TABLE
  2
STYLE
  5
8
100
AcDbSymbolTable
 70
     1
  0
STYLE
  5
9
100
AcDbSymbolTableRecord
100
AcDbTextStyleTableRecord
  2
Standard
 70
     0
  3
txt
  0
ENDTAB
  0
TABLE
  2
VIEW
  5
A
100
AcDbSymbolTable
 70
     0
  0
ENDTAB
  0
TABLE
  2
UCS
  5
B
100
AcDbSymbolTable
 70
     0
  0
ENDTAB
  0
TABLE
  2
APPID
  5
C
100
AcDbSymbolTable
 70
     1
  0
APPID
  5
D
100
AcDbSymbolTableRecord
100
AcDbRegAppTableRecord
  2
ACAD
 70
     0
  0
ENDTAB
  0
TABLE
  2
DIMSTYLE
  5
E
100
AcDbSymbolTable
 70
     0
100
AcDbDimStyleTable
  0
ENDTAB
  0
TABLE
  2
BLOCK_RECORD
  5
F
100
AcDbSymbolTable
 70
25
  0
BLOCK_RECORD
  5
10
100
AcDbSymbolTableRecord
100
AcDbBlockTableRecord
  2
*Model_Space
  0
BLOCK_RECORD
  5
11
100
AcDbSymbolTableRecord
100
AcDbBlockTableRecord
  2
*Paper_Space
  0
BLOCK_RECORD
  5
12
100
AcDbSymbolTableRecord
100
AcDbBlockTableRecord
  2
Mod_IZcab
  0
BLOCK_RECORD
  5
13
100
AcDbSymbolTableRecord
100
AcDbBlockTableRecord
  2
Mod_IZcab.Suelo
  0
BLOCK_RECORD
  5
14
100
AcDbSymbolTableRecord
100
AcDbBlockTableRecord
  2
Mod_IZcab.Suelo1
  0
BLOCK_RECORD
  5
15
100
AcDbSymbolTableRecord
100
AcDbBlockTableRecord
  2
Mod_IZcab.Techo iz
  0
BLOCK_RECORD
  5
16
100
AcDbSymbolTableRecord
100
AcDbBlockTableRecord
  2
Mod_IZcab.Techo iz (1) (1)
  0
BLOCK_RECORD
  5
17
100
AcDbSymbolTableRecord
100
AcDbBlockTableRecord
  2
Mod_IZcab.Techo iz (1) (2)
  0
BLOCK_RECORD
  5
18
100
AcDbSymbolTableRecord
100
AcDbBlockTableRecord
  2
Mod_IZcab.Techo iz (2)
  0
BLOCK_RECORD
  5
19
100
AcDbSymbolTableRecord
100
AcDbBlockTableRecord
  2
Mod_IZcab.Trasera
  0
BLOCK_RECORD
  5
1A
100
AcDbSymbolTableRecord
100
AcDbBlockTableRecord
  2
Mod_IZcab.Trasera1
  0
BLOCK_RECORD
  5
1B
100
AcDbSymbolTableRecord
100
AcDbBlockTableRecord
  2
Mod_IZcab.Techo de
  0
BLOCK_RECORD
  5
1C
100
AcDbSymbolTableRecord
100
AcDbBlockTableRecord
  2
Mod_IZcab.Techo de (1) (1)
  0
BLOCK_RECORD
  5
1D
100
AcDbSymbolTableRecord
100
AcDbBlockTableRecord
  2
Mod_IZcab.Techo de (1) (2)
  0
BLOCK_RECORD
  5
1E
100
AcDbSymbolTableRecord
100
AcDbBlockTableRecord
  2
Mod_IZcab.Techo de (2)
  0
BLOCK_RECORD
  5
1F
100
AcDbSymbolTableRecord
100
AcDbBlockTableRecord
  2
Mod_IZcab.Costadi Iz
  0
BLOCK_RECORD
  5
20
100
AcDbSymbolTableRecord
100
AcDbBlockTableRecord
  2
Mod_IZcab.Costadi Iz1
  0
BLOCK_RECORD
  5
21
100
AcDbSymbolTableRecord
100
AcDbBlockTableRecord
  2
Mod_IZcab.Costado De
  0
BLOCK_RECORD
  5
22
100
AcDbSymbolTableRecord
100
AcDbBlockTableRecord
  2
Mod_IZcab.Costado De1
  0
BLOCK_RECORD
  5
23
100
AcDbSymbolTableRecord
100
AcDbBlockTableRecord
  2
Mod_IZcab.Estante Fijo
  0
BLOCK_RECORD
  5
24
100
AcDbSymbolTableRecord
100
AcDbBlockTableRecord
  2
Mod_IZcab.Estante Fijo1
  0
BLOCK_RECORD
  5
25
100
AcDbSymbolTableRecord
100
AcDbBlockTableRecord
  2
Mod_IZcab.Puerta
  0
BLOCK_RECORD
  5
26
100
AcDbSymbolTableRecord
100
AcDbBlockTableRecord
  2
Mod_IZcab.Puerta (1) (1)
  0
BLOCK_RECORD
  5
27
100
AcDbSymbolTableRecord
100
AcDbBlockTableRecord
  2
Mod_IZcab.Puerta (1) (2)
  0
BLOCK_RECORD
  5
28
100
AcDbSymbolTableRecord
100
AcDbBlockTableRecord
  2
Mod_IZcab.Puerta (2)
  0
ENDTAB
  0
ENDSEC
  0
SECTION
  2
BLOCKS
  0
BLOCK
  5
29
100
AcDbEntity
100
AcDbBlockBegin
  2
*Model_Space
  0
ENDBLK
  5
2A
100
AcDbEntity
100
AcDbBlockEnd
  0
BLOCK
  5
2B
100
AcDbEntity
100
AcDbBlockBegin
  2
*Paper_Space
  0
ENDBLK
  5
2C
100
AcDbEntity
100
AcDbBlockEnd
  0
BLOCK
  5
2D
100
AcDbEntity
  8
0
100
AcDbBlockBegin
  2
Mod_IZcab
 70
     0
 10
0
 20
0
 30
0
  0
INSERT
  5
2E
100
AcDbEntity
  8
Mod_IZcab.Suelo
100
AcDbBlockReference
  2
Mod_IZcab.Suelo
 10
0
 20
0
 30
0
210
0
220
0
230
1
  0
INSERT
  5
2F
100
AcDbEntity
  8
Mod_IZcab.Techo iz
100
AcDbBlockReference
  2
Mod_IZcab.Techo iz
 10
0
 20
0
 30
0
210
0
220
0
230
1
  0
INSERT
  5
30
100
AcDbEntity
  8
Mod_IZcab.Trasera
100
AcDbBlockReference
  2
Mod_IZcab.Trasera
 10
0
 20
0
 30
0
210
0
220
0
230
1
  0
INSERT
  5
31
100
AcDbEntity
  8
Mod_IZcab.Techo de
100
AcDbBlockReference
  2
Mod_IZcab.Techo de
 10
0
 20
0
 30
0
210
0
220
0
230
1
  0
INSERT
  5
32
100
AcDbEntity
  8
Mod_IZcab.Costadi Iz
100
AcDbBlockReference
  2
Mod_IZcab.Costadi Iz
 10
0
 20
0
 30
0
210
0
220
0
230
1
  0
INSERT
  5
33
100
AcDbEntity
  8
Mod_IZcab.Costado De
100
AcDbBlockReference
  2
Mod_IZcab.Costado De
 10
0
 20
0
 30
0
210
0
220
0
230
1
  0
INSERT
  5
34
100
AcDbEntity
  8
Mod_IZcab.Estante Fijo
100
AcDbBlockReference
  2
Mod_IZcab.Estante Fijo
 10
0
 20
0
 30
0
210
0
220
0
230
1
  0
INSERT
  5
35
100
AcDbEntity
  8
Mod_IZcab.Puerta
100
AcDbBlockReference
  2
Mod_IZcab.Puerta
 10
0
 20
0
 30
0
210
0
220
0
230
1
  0
ENDBLK
  5
36
100
AcDbEntity
  8
0
100
AcDbBlockEnd
  0
BLOCK
  5
37
100
AcDbEntity
  8
Mod_IZcab.Suelo
100
AcDbBlockBegin
  2
Mod_IZcab.Suelo
 70
     0
 10
0
 20
0
 30
0
  0
INSERT
  5
38
100
AcDbEntity
  8
MELA_BL 19
100
AcDbBlockReference
  2
Mod_IZcab.Suelo1
 10
0
 20
20
 30
90
210
0
220
0
230
1
  0
ENDBLK
  5
39
100
AcDbEntity
  8
Mod_IZcab.Suelo
100
AcDbBlockEnd
  0
BLOCK
  5
3A
100
AcDbEntity
  8
MELA_BL 19
100
AcDbBlockBegin
  2
Mod_IZcab.Suelo1
 70
     0
 10
0
 20
20
 30
90
  0
3DFACE
  5
3B
100
AcDbEntity
  8
MELA_BL 19
 62
0
100
AcDbFace
 10
0
 20
20
 30
90
 11
0
 21
725
 31
90
 12
1412
 22
725
 32
90
 13
1412
 23
20
 33
90
 70
0
  0
3DFACE
  5
3C
100
AcDbEntity
  8
MELA_BL 19
 62
0
100
AcDbFace
 10
0
 20
20
 30
109
 11
0
 21
725
 31
109
 12
1412
 22
725
 32
109
 13
1412
 23
20
 33
109
 70
0
  0
3DFACE
  5
3D
100
AcDbEntity
  8
MELA_BL 19
 62
0
100
AcDbFace
 10
0
 20
20
 30
109
 11
0
 21
725
 31
109
 12
0
 22
725
 32
90
 13
0
 23
20
 33
90
 70
0
  0
3DFACE
  5
3E
100
AcDbEntity
  8
MELA_BL 19
 62
0
100
AcDbFace
 10
0
 20
725
 30
109
 11
1412
 21
725
 31
109
 12
1412
 22
725
 32
90
 13
0
 23
725
 33
90
 70
0
  0
3DFACE
  5
3F
100
AcDbEntity
  8
MELA_BL 19
 62
0
100
AcDbFace
 10
1412
 20
725
 30
109
 11
1412
 21
20
 31
109
 12
1412
 22
20
 32
90
 13
1412
 23
725
 33
90
 70
0
  0
3DFACE
  5
40
100
AcDbEntity
  8
MELA_BL 19
 62
0
100
AcDbFace
 10
1412
 20
20
 30
109
 11
0
 21
20
 31
109
 12
0
 22
20
 32
90
 13
1412
 23
20
 33
90
 70
0
  0
ENDBLK
  5
41
100
AcDbEntity
  8
MELA_BL 19
100
AcDbBlockEnd
  0
BLOCK
  5
42
100
AcDbEntity
  8
Mod_IZcab.Techo iz
100
AcDbBlockBegin
  2
Mod_IZcab.Techo iz
 70
     0
 10
0
 20
0
 30
0
  0
INSERT
  5
43
100
AcDbEntity
  8
Pino 31
100
AcDbBlockReference
  2
Mod_IZcab.Techo iz (1) (1)
 10
0
 20
39
 30
535
210
0
220
0
230
1
  0
INSERT
  5
44
100
AcDbEntity
  8
MELA_BL 19
100
AcDbBlockReference
  2
Mod_IZcab.Techo iz (1) (2)
 10
495.908926716
 20
725
 30
1026.03175072
210
0
220
0
230
1
  0
INSERT
  5
45
100
AcDbEntity
  8
MELA_BL 50
100
AcDbBlockReference
  2
Mod_IZcab.Techo iz (2)
 10
474
 20
20
 30
1048
210
0
220
0
230
1
  0
ENDBLK
  5
46
100
AcDbEntity
  8
Mod_IZcab.Techo iz
100
AcDbBlockEnd
  0
BLOCK
  5
47
100
AcDbEntity
  8
Pino 31
100
AcDbBlockBegin
  2
Mod_IZcab.Techo iz (1) (1)
 70
     0
 10
0
 20
39
 30
535
  0
3DFACE
  5
48
100
AcDbEntity
  8
Pino 31
 62
0
100
AcDbFace
 10
0
 20
39
 30
535
 11
0
 21
725
 31
535
 12
474
 22
725
 32
1048
 13
474
 23
39
 33
1048
 70
0
  0
3DFACE
  5
49
100
AcDbEntity
  8
Pino 31
 62
0
100
AcDbFace
 10
495.908926716
 20
725
 30
1026.03175072
 11
495.908926716
 21
39
 31
1026.03175072
 12
0
 22
39
 32
489.320190798
 13
0
 23
725
 33
489.320190798
 70
0
  0
3DFACE
  5
4A
100
AcDbEntity
  8
Pino 31
 62
0
100
AcDbFace
 10
0
 20
725
 30
489.320190798
 11
0
 21
725
 31
535
 12
0
 22
39
 32
535
 13
0
 23
39
 33
489.320190798
 70
0
  0
3DFACE
  5
4B
100
AcDbEntity
  8
Pino 31
 62
0
100
AcDbFace
 10
495.908926716
 20
725
 30
1026.03175072
 11
474
 21
725
 31
1048
 12
0
 22
725
 32
535
 13
0
 23
725
 33
489.320190798
 70
0
  0
3DFACE
  5
4C
100
AcDbEntity
  8
Pino 31
 62
0
100
AcDbFace
 10
474
 20
39
 30
1048
 11
474
 21
725
 31
1048
 12
495.908926716
 22
725
 32
1026.03175072
 13
495.908926716
 23
39
 33
1026.03175072
 70
0
  0
3DFACE
  5
4D
100
AcDbEntity
  8
Pino 31
 62
0
100
AcDbFace
 10
0
 20
39
 30
535
 11
474
 21
39
 31
1048
 12
495.908926716
 22
39
 32
1026.03175072
 13
0
 23
39
 33
489.320190798
 70
0
  0
ENDBLK
  5
4E
100
AcDbEntity
  8
Pino 31
100
AcDbBlockEnd
  0
BLOCK
  5
4F
100
AcDbEntity
  8
MELA_BL 19
100
AcDbBlockBegin
  2
Mod_IZcab.Techo iz (1) (2)
 70
     0
 10
495.908926716
 20
725
 30
1026.03175072
  0
3DFACE
  5
50
100
AcDbEntity
  8
MELA_BL 19
 62
0
100
AcDbFace
 10
495.908926716
 20
725
 30
1026.03175072
 11
495.908926716
 21
39
 31
1026.03175072
 12
0
 22
39
 32
489.320190798
 13
0
 23
725
 33
489.320190798
 70
0
  0
3DFACE
  5
51
100
AcDbEntity
  8
MELA_BL 19
 62
0
100
AcDbFace
 10
509.336978574
 20
39
 30
1012.56733988
 11
509.336978574
 21
725
 31
1012.56733988
 12
0
 22
725
 32
461.322888383
 13
0
 23
39
 33
461.322888383
 70
0
  0
3DFACE
  5
52
100
AcDbEntity
  8
MELA_BL 19
 62
0
100
AcDbFace
 10
495.908926716
 20
725
 30
1026.03175072
 11
509.336978574
 21
725
 31
1012.56733988
 12
509.336978574
 22
39
 32
1012.56733988
 13
495.908926716
 23
39
 33
1026.03175072
 70
0
  0
3DFACE
  5
53
100
AcDbEntity
  8
MELA_BL 19
 62
0
100
AcDbFace
 10
495.908926716
 20
39
 30
1026.03175072
 11
509.336978574
 21
39
 31
1012.56733988
 12
0
 22
39
 32
461.322888383
 13
0
 23
39
 33
489.320190798
 70
0
  0
3DFACE
  5
54
100
AcDbEntity
  8
MELA_BL 19
 62
0
100
AcDbFace
 10
0
 20
725
 30
461.322888383
 11
0
 21
725
 31
489.320190798
 12
0
 22
39
 32
489.320190798
 13
0
 23
39
 33
461.322888383
 70
0
  0
3DFACE
  5
55
100
AcDbEntity
  8
MELA_BL 19
 62
0
100
AcDbFace
 10
509.336978574
 20
725
 30
1012.56733988
 11
495.908926716
 21
725
 31
1026.03175072
 12
0
 22
725
 32
489.320190798
 13
0
 23
725
 33
461.322888383
 70
0
  0
ENDBLK
  5
56
100
AcDbEntity
  8
MELA_BL 19
100
AcDbBlockEnd
  0
BLOCK
  5
57
100
AcDbEntity
  8
MELA_BL 50
100
AcDbBlockBegin
  2
Mod_IZcab.Techo iz (2)
 70
     0
 10
474
 20
20
 30
1048
  0
3DFACE
  5
58
100
AcDbEntity
  8
MELA_BL 50
 62
0
100
AcDbFace
 10
474
 20
20
 30
1048
 11
0
 21
20
 31
535
 12
0
 22
39
 32
535
 13
474
 23
39
 33
1048
 70
0
  0
3DFACE
  5
59
100
AcDbEntity
  8
MELA_BL 50
 62
0
100
AcDbFace
 10
509.336978574
 20
20
 30
1012.56733988
 11
509.336978574
 21
39
 31
1012.56733988
 12
0
 22
39
 32
461.322888383
 13
0
 23
20
 33
461.322888383
 70
0
  0
3DFACE
  5
5A
100
AcDbEntity
  8
MELA_BL 50
 62
0
100
AcDbFace
 10
0
 20
20
 30
461.322888383
 11
509.336978574
 21
20
 31
1012.56733988
 12
474
 22
20
 32
1048
 13
0
 23
20
 33
535
 70
0
  0
3DFACE
  5
5B
100
AcDbEntity
  8
MELA_BL 50
 62
0
100
AcDbFace
 10
0
 20
39
 30
535
 11
0
 21
20
 31
535
 12
0
 22
20
 32
461.322888383
 13
0
 23
39
 33
461.322888383
 70
0
  0
3DFACE
  5
5C
100
AcDbEntity
  8
MELA_BL 50
 62
0
100
AcDbFace
 10
474
 20
39
 30
1048
 11
509.336978574
 21
39
 31
1012.56733988
 12
0
 22
39
 32
461.322888383
 13
0
 23
39
 33
535
 70
0
  0
3DFACE
  5
5D
100
AcDbEntity
  8
MELA_BL 50
 62
0
100
AcDbFace
 10
509.336978574
 20
20
 30
1012.56733988
 11
474
 21
20
 31
1048
 12
474
 22
39
 32
1048
 13
509.336978574
 23
39
 33
1012.56733988
 70
0
  0
ENDBLK
  5
5E
100
AcDbEntity
  8
MELA_BL 50
100
AcDbBlockEnd
  0
BLOCK
  5
5F
100
AcDbEntity
  8
Mod_IZcab.Trasera
100
AcDbBlockBegin
  2
Mod_IZcab.Trasera
 70
     0
 10
0
 20
0
 30
0
  0
INSERT
  5
60
100
AcDbEntity
  8
MELA_BL 19
100
AcDbBlockReference
  2
Mod_IZcab.Trasera1
 10
509.336978574
 20
725
 30
1012.56733988
210
0
220
0
230
1
  0
ENDBLK
  5
61
100
AcDbEntity
  8
Mod_IZcab.Trasera
100
AcDbBlockEnd
  0
BLOCK
  5
62
100
AcDbEntity
  8
MELA_BL 19
100
AcDbBlockBegin
  2
Mod_IZcab.Trasera1
 70
     0
 10
509.336978574
 20
725
 30
1012.56733988
  0
3DFACE
  5
63
100
AcDbEntity
  8
MELA_BL 19
 62
0
100
AcDbFace
 10
509.336978574
 20
725
 30
1012.56733988
 11
1412
 21
725
 31
1842.09348537
 12
1412
 22
725
 32
109
 13
509.336978574
 23
725
 33
1012.56733988
 70
12
  0
3DFACE
  5
64
100
AcDbEntity
  8
MELA_BL 19
 62
0
100
AcDbFace
 10
0
 20
725
 30
109
 11
509.336978574
 21
725
 31
1012.56733988
 12
1412
 22
725
 32
109
 13
0
 23
725
 33
109
 70
11
  0
3DFACE
  5
65
100
AcDbEntity
  8
MELA_BL 19
 62
0
100
AcDbFace
 10
0
 20
725
 30
461.322888383
 11
509.336978574
 21
725
 31
1012.56733988
 12
0
 22
725
 32
109
 13
0
 23
725
 33
461.322888383
 70
10
  0
3DFACE
  5
66
100
AcDbEntity
  8
MELA_BL 19
 62
0
100
AcDbFace
 10
509.336978574
 20
706
 30
1012.56733988
 11
0
 21
706
 31
461.322888383
 12
0
 22
706
 32
109
 13
509.336978574
 23
706
 33
1012.56733988
 70
12
  0
3DFACE
  5
67
100
AcDbEntity
  8
MELA_BL 19
 62
0
100
AcDbFace
 10
1412
 20
706
 30
109
 11
509.336978574
 21
706
 31
1012.56733988
 12
0
 22
706
 32
109
 13
1412
 23
706
 33
109
 70
11
  0
3DFACE
  5
68
100
AcDbEntity
  8
MELA_BL 19
 62
0
100
AcDbFace
 10
1412
 20
706
 30
1842.09348537
 11
509.336978574
 21
706
 31
1012.56733988
 12
1412
 22
706
 32
109
 13
1412
 23
706
 33
1842.09348537
 70
10
  0
3DFACE
  5
69
100
AcDbEntity
  8
MELA_BL 19
 62
0
100
AcDbFace
 10
0
 20
706
 30
461.322888383
 11
509.336978574
 21
706
 31
1012.56733988
 12
509.336978574
 22
725
 32
1012.56733988
 13
0
 23
725
 33
461.322888383
 70
0
  0
3DFACE
  5
6A
100
AcDbEntity
  8
MELA_BL 19
 62
0
100
AcDbFace
 10
509.336978574
 20
706
 30
1012.56733988
 11
1412
 21
706
 31
1842.09348537
 12
1412
 22
725
 32
1842.09348537
 13
509.336978574
 23
725
 33
1012.56733988
 70
0
  0
3DFACE
  5
6B
100
AcDbEntity
  8
MELA_BL 19
 62
0
100
AcDbFace
 10
1412
 20
706
 30
1842.09348537
 11
1412
 21
706
 31
109
 12
1412
 22
725
 32
109
 13
1412
 23
725
 33
1842.09348537
 70
0
  0
3DFACE
  5
6C
100
AcDbEntity
  8
MELA_BL 19
 62
0
100
AcDbFace
 10
1412
 20
706
 30
109
 11
0
 21
706
 31
109
 12
0
 22
725
 32
109
 13
1412
 23
725
 33
109
 70
0
  0
3DFACE
  5
6D
100
AcDbEntity
  8
MELA_BL 19
 62
0
100
AcDbFace
 10
0
 20
706
 30
109
 11
0
 21
706
 31
461.322888383
 12
0
 22
725
 32
461.322888383
 13
0
 23
725
 33
109
 70
0
  0
ENDBLK
  5
6E
100
AcDbEntity
  8
MELA_BL 19
100
AcDbBlockEnd
  0
BLOCK
  5
6F
100
AcDbEntity
  8
Mod_IZcab.Techo de
100
AcDbBlockBegin
  2
Mod_IZcab.Techo de
 70
     0
 10
0
 20
0
 30
0
  0
INSERT
  5
70
100
AcDbEntity
  8
Pino 31
100
AcDbBlockReference
  2
Mod_IZcab.Techo de (1) (1)
 10
474
 20
39
 30
1048
210
0
220
0
230
1
  0
INSERT
  5
71
100
AcDbEntity
  8
MELA_BL 19
100
AcDbBlockReference
  2
Mod_IZcab.Techo de (1) (2)
 10
1412
 20
725
 30
1867.89796093
210
0
220
0
230
1
  0
INSERT
  5
72
100
AcDbEntity
  8
MELA_BL 50
100
AcDbBlockReference
  2
Mod_IZcab.Techo de (2)
 10
1412
 20
20
 30
1910
210
0
220
0
230
1
  0
ENDBLK
  5
73
100
AcDbEntity
  8
Mod_IZcab.Techo de
100
AcDbBlockEnd
  0
BLOCK
  5
74
100
AcDbEntity
  8
Pino 31
100
AcDbBlockBegin
  2
Mod_IZcab.Techo de (1) (1)
 70
     0
 10
474
 20
39
 30
1048
  0
3DFACE
  5
75
100
AcDbEntity
  8
Pino 31
 62
0
100
AcDbFace
 10
474
 20
39
 30
1048
 11
474
 21
725
 31
1048
 12
1412
 22
725
 32
1910
 13
1412
 23
39
 33
1910
 70
0
  0
3DFACE
  5
76
100
AcDbEntity
  8
Pino 31
 62
0
100
AcDbFace
 10
1412
 20
725
 30
1867.89796093
 11
1412
 21
39
 31
1867.89796093
 12
495.908926716
 22
39
 32
1026.03175072
 13
495.908926716
 23
725
 33
1026.03175072
 70
0
  0
3DFACE
  5
77
100
AcDbEntity
  8
Pino 31
 62
0
100
AcDbFace
 10
495.908926716
 20
725
 30
1026.03175072
 11
474
 21
725
 31
1048
 12
474
 22
39
 32
1048
 13
495.908926716
 23
39
 33
1026.03175072
 70
0
  0
3DFACE
  5
78
100
AcDbEntity
  8
Pino 31
 62
0
100
AcDbFace
 10
1412
 20
725
 30
1867.89796093
 11
1412
 21
725
 31
1910
 12
474
 22
725
 32
1048
 13
495.908926716
 23
725
 33
1026.03175072
 70
0
  0
3DFACE
  5
79
100
AcDbEntity
  8
Pino 31
 62
0
100
AcDbFace
 10
1412
 20
39
 30
1910
 11
1412
 21
725
 31
1910
 12
1412
 22
725
 32
1867.89796093
 13
1412
 23
39
 33
1867.89796093
 70
0
  0
3DFACE
  5
7A
100
AcDbEntity
  8
Pino 31
 62
0
100
AcDbFace
 10
474
 20
39
 30
1048
 11
1412
 21
39
 31
1910
 12
1412
 22
39
 32
1867.89796093
 13
495.908926716
 23
39
 33
1026.03175072
 70
0
  0
ENDBLK
  5
7B
100
AcDbEntity
  8
Pino 31
100
AcDbBlockEnd
  0
BLOCK
  5
7C
100
AcDbEntity
  8
MELA_BL 19
100
AcDbBlockBegin
  2
Mod_IZcab.Techo de (1) (2)
 70
     0
 10
1412
 20
725
 30
1867.89796093
  0
3DFACE
  5
7D
100
AcDbEntity
  8
MELA_BL 19
 62
0
100
AcDbFace
 10
1412
 20
725
 30
1867.89796093
 11
1412
 21
39
 31
1867.89796093
 12
495.908926716
 22
39
 32
1026.03175072
 13
495.908926716
 23
725
 33
1026.03175072
 70
0
  0
3DFACE
  5
7E
100
AcDbEntity
  8
MELA_BL 19
 62
0
100
AcDbFace
 10
1412
 20
39
 30
1842.09348537
 11
1412
 21
725
 31
1842.09348537
 12
509.336978574
 22
725
 32
1012.56733988
 13
509.336978574
 23
39
 33
1012.56733988
 70
0
  0
3DFACE
  5
7F
100
AcDbEntity
  8
MELA_BL 19
 62
0
100
AcDbFace
 10
1412
 20
725
 30
1867.89796093
 11
1412
 21
725
 31
1842.09348537
 12
1412
 22
39
 32
1842.09348537
 13
1412
 23
39
 33
1867.89796093
 70
0
  0
3DFACE
  5
80
100
AcDbEntity
  8
MELA_BL 19
 62
0
100
AcDbFace
 10
1412
 20
39
 30
1867.89796093
 11
1412
 21
39
 31
1842.09348537
 12
509.336978574
 22
39
 32
1012.56733988
 13
495.908926716
 23
39
 33
1026.03175072
 70
0
  0
3DFACE
  5
81
100
AcDbEntity
  8
MELA_BL 19
 62
0
100
AcDbFace
 10
509.336978574
 20
725
 30
1012.56733988
 11
495.908926716
 21
725
 31
1026.03175072
 12
495.908926716
 22
39
 32
1026.03175072
 13
509.336978574
 23
39
 33
1012.56733988
 70
0
  0
3DFACE
  5
82
100
AcDbEntity
  8
MELA_BL 19
 62
0
100
AcDbFace
 10
1412
 20
725
 30
1842.09348537
 11
1412
 21
725
 31
1867.89796093
 12
495.908926716
 22
725
 32
1026.03175072
 13
509.336978574
 23
725
 33
1012.56733988
 70
0
  0
ENDBLK
  5
83
100
AcDbEntity
  8
MELA_BL 19
100
AcDbBlockEnd
  0
BLOCK
  5
84
100
AcDbEntity
  8
MELA_BL 50
100
AcDbBlockBegin
  2
Mod_IZcab.Techo de (2)
 70
     0
 10
1412
 20
20
 30
1910
  0
3DFACE
  5
85
100
AcDbEntity
  8
MELA_BL 50
 62
0
100
AcDbFace
 10
1412
 20
20
 30
1910
 11
474
 21
20
 31
1048
 12
474
 22
39
 32
1048
 13
1412
 23
39
 33
1910
 70
0
  0
3DFACE
  5
86
100
AcDbEntity
  8
MELA_BL 50
 62
0
100
AcDbFace
 10
1412
 20
20
 30
1842.09348537
 11
1412
 21
39
 31
1842.09348537
 12
509.336978574
 22
39
 32
1012.56733988
 13
509.336978574
 23
20
 33
1012.56733988
 70
0
  0
3DFACE
  5
87
100
AcDbEntity
  8
MELA_BL 50
 62
0
100
AcDbFace
 10
509.336978574
 20
20
 30
1012.56733988
 11
1412
 21
20
 31
1842.09348537
 12
1412
 22
20
 32
1910
 13
474
 23
20
 33
1048
 70
0
  0
3DFACE
  5
88
100
AcDbEntity
  8
MELA_BL 50
 62
0
100
AcDbFace
 10
474
 20
39
 30
1048
 11
474
 21
20
 31
1048
 12
509.336978574
 22
20
 32
1012.56733988
 13
509.336978574
 23
39
 33
1012.56733988
 70
0
  0
3DFACE
  5
89
100
AcDbEntity
  8
MELA_BL 50
 62
0
100
AcDbFace
 10
1412
 20
39
 30
1910
 11
1412
 21
39
 31
1842.09348537
 12
509.336978574
 22
39
 32
1012.56733988
 13
474
 23
39
 33
1048
 70
0
  0
3DFACE
  5
8A
100
AcDbEntity
  8
MELA_BL 50
 62
0
100
AcDbFace
 10
1412
 20
20
 30
1842.09348537
 11
1412
 21
20
 31
1910
 12
1412
 22
39
 32
1910
 13
1412
 23
39
 33
1842.09348537
 70
0
  0
ENDBLK
  5
8B
100
AcDbEntity
  8
MELA_BL 50
100
AcDbBlockEnd
  0
BLOCK
  5
8C
100
AcDbEntity
  8
Mod_IZcab.Costadi Iz
100
AcDbBlockBegin
  2
Mod_IZcab.Costadi Iz
 70
     0
 10
0
 20
0
 30
0
  0
INSERT
  5
8D
100
AcDbEntity
  8
MELA_BL 19
100
AcDbBlockReference
  2
Mod_IZcab.Costadi Iz1
 10
0
 20
20
 30
461.322888383
210
0
220
0
230
1
  0
ENDBLK
  5
8E
100
AcDbEntity
  8
Mod_IZcab.Costadi Iz
100
AcDbBlockEnd
  0
BLOCK
  5
8F
100
AcDbEntity
  8
MELA_BL 19
100
AcDbBlockBegin
  2
Mod_IZcab.Costadi Iz1
 70
     0
 10
0
 20
20
 30
461.322888383
  0
3DFACE
  5
90
100
AcDbEntity
  8
MELA_BL 19
 62
0
100
AcDbFace
 10
0
 20
20
 30
461.322888383
 11
0
 21
20
 31
109
 12
0
 22
706
 32
109
 13
0
 23
706
 33
461.322888383
 70
0
  0
3DFACE
  5
91
100
AcDbEntity
  8
MELA_BL 19
 62
0
100
AcDbFace
 10
19
 20
20
 30
481.886179523
 11
19
 21
20
 31
109
 12
19
 22
706
 32
109
 13
19
 23
706
 33
481.886179523
 70
0
  0
3DFACE
  5
92
100
AcDbEntity
  8
MELA_BL 19
 62
0
100
AcDbFace
 10
0
 20
20
 30
461.322888383
 11
19
 21
20
 31
481.886179523
 12
19
 22
20
 32
109
 13
0
 23
20
 33
109
 70
0
  0
3DFACE
  5
93
100
AcDbEntity
  8
MELA_BL 19
 62
0
100
AcDbFace
 10
0
 20
20
 30
109
 11
19
 21
20
 31
109
 12
19
 22
706
 32
109
 13
0
 23
706
 33
109
 70
0
  0
3DFACE
  5
94
100
AcDbEntity
  8
MELA_BL 19
 62
0
100
AcDbFace
 10
0
 20
706
 30
109
 11
19
 21
706
 31
109
 12
19
 22
706
 32
481.886179523
 13
0
 23
706
 33
461.322888383
 70
0
  0
3DFACE
  5
95
100
AcDbEntity
  8
MELA_BL 19
 62
0
100
AcDbFace
 10
0
 20
706
 30
461.322888383
 11
19
 21
706
 31
481.886179523
 12
19
 22
20
 32
481.886179523
 13
0
 23
20
 33
461.322888383
 70
0
  0
ENDBLK
  5
96
100
AcDbEntity
  8
MELA_BL 19
100
AcDbBlockEnd
  0
BLOCK
  5
97
100
AcDbEntity
  8
Mod_IZcab.Costado De
100
AcDbBlockBegin
  2
Mod_IZcab.Costado De
 70
     0
 10
0
 20
0
 30
0
  0
INSERT
  5
98
100
AcDbEntity
  8
MELA_BL 19
100
AcDbBlockReference
  2
Mod_IZcab.Costado De1
 10
1393
 20
20
 30
1824.632931
210
0
220
0
230
1
  0
ENDBLK
  5
99
100
AcDbEntity
  8
Mod_IZcab.Costado De
100
AcDbBlockEnd
  0
BLOCK
  5
9A
100
AcDbEntity
  8
MELA_BL 19
100
AcDbBlockBegin
  2
Mod_IZcab.Costado De1
 70
     0
 10
1393
 20
20
 30
1824.632931
  0
3DFACE
  5
9B
100
AcDbEntity
  8
MELA_BL 19
 62
0
100
AcDbFace
 10
1393
 20
20
 30
1824.632931
 11
1393
 21
20
 31
109
 12
1393
 22
706
 32
109
 13
1393
 23
706
 33
1824.632931
 70
0
  0
3DFACE
  5
9C
100
AcDbEntity
  8
MELA_BL 19
 62
0
100
AcDbFace
 10
1412
 20
20
 30
1842.09348537
 11
1412
 21
20
 31
109
 12
1412
 22
706
 32
109
 13
1412
 23
706
 33
1842.09348537
 70
0
  0
3DFACE
  5
9D
100
AcDbEntity
  8
MELA_BL 19
 62
0
100
AcDbFace
 10
1393
 20
20
 30
1824.632931
 11
1412
 21
20
 31
1842.09348537
 12
1412
 22
20
 32
109
 13
1393
 23
20
 33
109
 70
0
  0
3DFACE
  5
9E
100
AcDbEntity
  8
MELA_BL 19
 62
0
100
AcDbFace
 10
1393
 20
20
 30
109
 11
1412
 21
20
 31
109
 12
1412
 22
706
 32
109
 13
1393
 23
706
 33
109
 70
0
  0
3DFACE
  5
9F
100
AcDbEntity
  8
MELA_BL 19
 62
0
100
AcDbFace
 10
1393
 20
706
 30
109
 11
1412
 21
706
 31
109
 12
1412
 22
706
 32
1842.09348537
 13
1393
 23
706
 33
1824.632931
 70
0
  0
3DFACE
  5
A0
100
AcDbEntity
  8
MELA_BL 19
 62
0
100
AcDbFace
 10
1393
 20
706
 30
1824.632931
 11
1412
 21
706
 31
1842.09348537
 12
1412
 22
20
 32
1842.09348537
 13
1393
 23
20
 33
1824.632931
 70
0
  0
ENDBLK
  5
A1
100
AcDbEntity
  8
MELA_BL 19
100
AcDbBlockEnd
  0
BLOCK
  5
A2
100
AcDbEntity
  8
Mod_IZcab.Estante Fijo
100
AcDbBlockBegin
  2
Mod_IZcab.Estante Fijo
 70
     0
 10
0
 20
0
 30
0
  0
INSERT
  5
A3
100
AcDbEntity
  8
MELA_BL 19
100
AcDbBlockReference
  2
Mod_IZcab.Estante Fijo1
 10
1393
 20
706
 30
909
210
0
220
0
230
1
  0
ENDBLK
  5
A4
100
AcDbEntity
  8
Mod_IZcab.Estante Fijo
100
AcDbBlockEnd
  0
BLOCK
  5
A5
100
AcDbEntity
  8
MELA_BL 19
100
AcDbBlockBegin
  2
Mod_IZcab.Estante Fijo1
 70
     0
 10
1393
 20
706
 30
909
  0
3DFACE
  5
A6
100
AcDbEntity
  8
MELA_BL 19
 62
0
100
AcDbFace
 10
1393
 20
706
 30
909
 11
413.643179154
 21
706
 31
909
 12
413.643179154
 22
30
 32
909
 13
1393
 23
30
 33
909
 70
0
  0
3DFACE
  5
A7
100
AcDbEntity
  8
MELA_BL 19
 62
0
100
AcDbFace
 10
1393
 20
706
 30
928
 11
431.19873471
 21
706
 31
928
 12
431.19873471
 22
30
 32
928
 13
1393
 23
30
 33
928
 70
0
  0
3DFACE
  5
A8
100
AcDbEntity
  8
MELA_BL 19
 62
0
100
AcDbFace
 10
1393
 20
706
 30
909
 11
1393
 21
706
 31
928
 12
431.19873471
 22
706
 32
928
 13
413.643179154
 23
706
 33
909
 70
0
  0
3DFACE
  5
A9
100
AcDbEntity
  8
MELA_BL 19
 62
0
100
AcDbFace
 10
413.643179154
 20
706
 30
909
 11
431.19873471
 21
706
 31
928
 12
431.19873471
 22
30
 32
928
 13
413.643179154
 23
30
 33
909
 70
0
  0
3DFACE
  5
AA
100
AcDbEntity
  8
MELA_BL 19
 62
0
100
AcDbFace
 10
413.643179154
 20
30
 30
909
 11
431.19873471
 21
30
 31
928
 12
1393
 22
30
 32
928
 13
1393
 23
30
 33
909
 70
0
  0
3DFACE
  5
AB
100
AcDbEntity
  8
MELA_BL 19
 62
0
100
AcDbFace
 10
1393
 20
30
 30
909
 11
1393
 21
30
 31
928
 12
1393
 22
706
 32
928
 13
1393
 23
706
 33
909
 70
0
  0
ENDBLK
  5
AC
100
AcDbEntity
  8
MELA_BL 19
100
AcDbBlockEnd
  0
BLOCK
  5
AD
100
AcDbEntity
  8
Mod_IZcab.Puerta
100
AcDbBlockBegin
  2
Mod_IZcab.Puerta
 70
     0
 10
0
 20
0
 30
0
  0
INSERT
  5
AE
100
AcDbEntity
  8
Puerta 1
100
AcDbBlockReference
  2
Mod_IZcab.Puerta (1) (1)
 10
475.878
 20
0
 30
90
210
0
220
0
230
1
  0
INSERT
  5
AF
100
AcDbEntity
  8
Puerta 1
100
AcDbBlockReference
  2
Mod_IZcab.Puerta (1) (2)
 10
481.067395715
 20
0
 30
1040.91346798
210
0
220
0
230
1
  0
INSERT
  5
B0
100
AcDbEntity
  8
MELA_BL 19
100
AcDbBlockReference
  2
Mod_IZcab.Puerta (2)
 10
1390
 20
0.5
 30
1876.20121306
210
0
220
0
230
1
  0
ENDBLK
  5
B1
100
AcDbEntity
  8
Mod_IZcab.Puerta
100
AcDbBlockEnd
  0
BLOCK
  5
B2
100
AcDbEntity
  8
Puerta 1
100
AcDbBlockBegin
  2
Mod_IZcab.Puerta (1) (1)
 70
     0
 10
475.878
 20
0
 30
90
  0
3DFACE
  5
B3
100
AcDbEntity
  8
Puerta 1
 62
0
100
AcDbFace
 10
475.878
 20
0
 30
90
 11
22
 21
0
 31
90
 12
22
 22
0
 32
544.074704259
 13
475.878
 23
0
 33
1035.29709666
 70
0
  0
3DFACE
  5
B4
100
AcDbEntity
  8
Puerta 1
 62
0
100
AcDbFace
 10
475.878
 20
20
 30
1035.29709666
 11
22
 21
20
 31
544.074704259
 12
22
 22
20
 32
90
 13
475.878
 23
20
 33
90
 70
0
  0
3DFACE
  5
B5
100
AcDbEntity
  8
Puerta 1
 62
0
100
AcDbFace
 10
22
 20
20
 30
90
 11
22
 21
0
 31
90
 12
475.878
 22
0
 32
90
 13
475.878
 23
20
 33
90
 70
0
  0
3DFACE
  5
B6
100
AcDbEntity
  8
Puerta 1
 62
0
100
AcDbFace
 10
22
 20
20
 30
544.074704259
 11
22
 21
0
 31
544.074704259
 12
22
 22
0
 32
90
 13
22
 23
20
 33
90
 70
0
  0
3DFACE
  5
B7
100
AcDbEntity
  8
Puerta 1
 62
0
100
AcDbFace
 10
475.878
 20
0
 30
1035.29709666
 11
22
 21
0
 31
544.074704259
 12
22
 22
20
 32
544.074704259
 13
475.878
 23
20
 33
1035.29709666
 70
0
  0
3DFACE
  5
B8
100
AcDbEntity
  8
Puerta 1
 62
0
100
AcDbFace
 10
475.878
 20
0
 30
90
 11
475.878
 21
20
 31
90
 12
475.878
 22
20
 32
1035.29709666
 13
475.878
 23
0
 33
1035.29709666
 70
0
  0
ENDBLK
  5
B9
100
AcDbEntity
  8
Puerta 1
100
AcDbBlockEnd
  0
BLOCK
  5
BA
100
AcDbEntity
  8
Puerta 1
100
AcDbBlockBegin
  2
Mod_IZcab.Puerta (1) (2)
 70
     0
 10
481.067395715
 20
0
 30
1040.91346798
  0
3DFACE
  5
BB
100
AcDbEntity
  8
Puerta 1
 62
0
100
AcDbFace
 10
481.067395715
 20
0
 30
1040.91346798
 11
477.878
 21
0
 31
1037.46165363
 12
477.878
 22
0
 32
90
 13
481.067395715
 23
0
 33
1040.91346798
 70
12
  0
3DFACE
  5
BC
100
AcDbEntity
  8
Puerta 1
 62
0
100
AcDbFace
 10
931.756
 20
0
 30
90
 11
481.067395715
 21
0
 31
1040.91346798
 12
477.878
 22
0
 32
90
 13
931.756
 23
0
 33
90
 70
11
  0
3DFACE
  5
BD
100
AcDbEntity
  8
Puerta 1
 62
0
100
AcDbFace
 10
931.756
 20
0
 30
1455.08572479
 11
481.067395715
 21
0
 31
1040.91346798
 12
931.756
 22
0
 32
90
 13
931.756
 23
0
 33
1455.08572479
 70
10
  0
3DFACE
  5
BE
100
AcDbEntity
  8
Puerta 1
 62
0
100
AcDbFace
 10
481.067395715
 20
20
 30
1040.91346798
 11
931.756
 21
20
 31
1455.08572479
 12
931.756
 22
20
 32
90
 13
481.067395715
 23
20
 33
1040.91346798
 70
12
  0
3DFACE
  5
BF
100
AcDbEntity
  8
Puerta 1
 62
0
100
AcDbFace
 10
477.878
 20
20
 30
90
 11
481.067395715
 21
20
 31
1040.91346798
 12
931.756
 22
20
 32
90
 13
477.878
 23
20
 33
90
 70
11
  0
3DFACE
  5
C0
100
AcDbEntity
  8
Puerta 1
 62
0
100
AcDbFace
 10
477.878
 20
20
 30
1037.46165363
 11
481.067395715
 21
20
 31
1040.91346798
 12
477.878
 22
20
 32
90
 13
477.878
 23
20
 33
1037.46165363
 70
10
  0
3DFACE
  5
C1
100
AcDbEntity
  8
Puerta 1
 62
0
100
AcDbFace
 10
477.878
 20
0
 30
90
 11
931.756
 21
0
 31
90
 12
931.756
 22
20
 32
90
 13
477.878
 23
20
 33
90
 70
0
  0
3DFACE
  5
C2
100
AcDbEntity
  8
Puerta 1
 62
0
100
AcDbFace
 10
477.878
 20
0
 30
1037.46165363
 11
477.878
 21
20
 31
1037.46165363
 12
477.878
 22
20
 32
90
 13
477.878
 23
0
 33
90
 70
0
  0
3DFACE
  5
C3
100
AcDbEntity
  8
Puerta 1
 62
0
100
AcDbFace
 10
481.067395715
 20
20
 30
1040.91346798
 11
481.067395715
 21
0
 31
1040.91346798
 12
477.878
 22
0
 32
1037.46165363
 13
477.878
 23
20
 33
1037.46165363
 70
0
  0
3DFACE
  5
C4
100
AcDbEntity
  8
Puerta 1
 62
0
100
AcDbFace
 10
931.756
 20
0
 30
1455.08572479
 11
481.067395715
 21
0
 31
1040.91346798
 12
481.067395715
 22
20
 32
1040.91346798
 13
931.756
 23
20
 33
1455.08572479
 70
0
  0
3DFACE
  5
C5
100
AcDbEntity
  8
Puerta 1
 62
0
100
AcDbFace
 10
931.756
 20
0
 30
90
 11
931.756
 21
20
 31
90
 12
931.756
 22
20
 32
1455.08572479
 13
931.756
 23
0
 33
1455.08572479
 70
0
  0
ENDBLK
  5
C6
100
AcDbEntity
  8
Puerta 1
100
AcDbBlockEnd
  0
BLOCK
  5
C7
100
AcDbEntity
  8
MELA_BL 19
100
AcDbBlockBegin
  2
Mod_IZcab.Puerta (2)
 70
     0
 10
1390
 20
0.5
 30
1876.20121306
  0
3DFACE
  5
C8
100
AcDbEntity
  8
MELA_BL 19
 62
0
100
AcDbFace
 10
1390
 20
0.5
 30
1876.20121306
 11
1390
 21
0.5
 31
90
 12
933.756
 22
0.5
 32
90
 13
933.756
 23
0.5
 33
1456.92367788
 70
0
  0
3DFACE
  5
C9
100
AcDbEntity
  8
MELA_BL 19
 62
0
100
AcDbFace
 10
933.756
 20
19.5
 30
1456.92367788
 11
933.756
 21
19.5
 31
90
 12
1390
 22
19.5
 32
90
 13
1390
 23
19.5
 33
1876.20121306
 70
0
  0
3DFACE
  5
CA
100
AcDbEntity
  8
MELA_BL 19
 62
0
100
AcDbFace
 10
1390
 20
19.5
 30
90
 11
1390
 21
0.5
 31
90
 12
1390
 22
0.5
 32
1876.20121306
 13
1390
 23
19.5
 33
1876.20121306
 70
0
  0
3DFACE
  5
CB
100
AcDbEntity
  8
MELA_BL 19
 62
0
100
AcDbFace
 10
933.756
 20
0.5
 30
90
 11
1390
 21
0.5
 31
90
 12
1390
 22
19.5
 32
90
 13
933.756
 23
19.5
 33
90
 70
0
  0
3DFACE
  5
CC
100
AcDbEntity
  8
MELA_BL 19
 62
0
100
AcDbFace
 10
933.756
 20
0.5
 30
90
 11
933.756
 21
19.5
 31
90
 12
933.756
 22
19.5
 32
1456.92367788
 13
933.756
 23
0.5
 33
1456.92367788
 70
0
  0
3DFACE
  5
CD
100
AcDbEntity
  8
MELA_BL 19
 62
0
100
AcDbFace
 10
1390
 20
19.5
 30
1876.20121306
 11
1390
 21
0.5
 31
1876.20121306
 12
933.756
 22
0.5
 32
1456.92367788
 13
933.756
 23
19.5
 33
1456.92367788
 70
0
  0
ENDBLK
  5
CE
100
AcDbEntity
  8
MELA_BL 19
100
AcDbBlockEnd
  0
ENDSEC
  0
SECTION
  2
ENTITIES
  0
INSERT
  5
CF
100
AcDbEntity
  8
0
100
AcDbBlockReference
  2
Mod_IZcab
 10
0
 20
0
 30
0
210
0
220
0
230
1
  0
ENDSEC
  0
SECTION
  2
OBJECTS
  0
DICTIONARY
  5
D0
100
AcDbDictionary
  3
ACAD_GROUP
350
D1
  3
ACAD_MLINESTYLE
350
D2
  0
DICTIONARY
  5
D1
100
AcDbDictionary
  0
DICTIONARY
  5
D2
100
AcDbDictionary
  0
ENDSEC
  0
EOF
